<svg class="no-result-icon" width="24" height="24" viewBox="0 0 24 24" fill="none" aria-hidden="true" focusable="false">
<path d="M4.13221 3.00323C3.92252 3.19574 3.75 3.50664 3.75 3.99996C3.75 4.41418 3.41421 4.74996 3 4.74996C2.58579 4.74996 2.25 4.41418 2.25 3.99996C2.25 3.11621 2.57748 2.3943 3.11779 1.89827C3.64612 1.41323 4.33351 1.18434 4.99999 1.18433C5.66647 1.18432 6.35386 1.41318 6.8822 1.89821C7.42251 2.39424 7.75 3.11614 7.75 3.99989C7.75 4.63522 7.58368 5.12843 7.31258 5.5373C7.08771 5.87645 6.7959 6.14197 6.57681 6.34133L6.5072 6.40485C6.26188 6.63006 6.09014 6.80387 5.96554 7.02448C5.84866 7.2314 5.75 7.52382 5.75 7.99991C5.75 8.41412 5.41421 8.74991 5 8.74991C4.58579 8.74991 4.25 8.41412 4.25 7.99991C4.25 7.29565 4.40134 6.74381 4.65946 6.28679C4.90986 5.84347 5.23812 5.53367 5.4928 5.29987L5.54585 5.2512C5.79109 5.0264 5.9453 4.88502 6.06242 4.70839C6.16632 4.55169 6.25 4.34818 6.25 3.99989C6.25 3.50658 6.07749 3.19569 5.8678 3.00319C5.64614 2.79971 5.33353 2.68432 5.00001 2.68433C4.66649 2.68433 4.35388 2.79973 4.13221 3.00323Z" fill="black"></path>
<path d="M21.25 12C21.25 6.89137 17.1086 2.75 12 2.75C11.5858 2.75 11.25 2.41421 11.25 2C11.25 1.58579 11.5858 1.25 12 1.25C17.9371 1.25 22.75 6.06294 22.75 12C22.75 17.9371 17.9371 22.75 12 22.75C6.06294 22.75 1.25 17.9371 1.25 12C1.25 11.5858 1.58579 11.25 2 11.25C2.41421 11.25 2.75 11.5858 2.75 12C2.75 17.1086 6.89137 21.25 12 21.25C15.5802 21.25 18.6854 19.216 20.2229 16.2405L19.6884 15.7178C19.5299 15.5593 19.2864 15.3423 18.959 15.124C18.3069 14.6894 17.3243 14.25 16 14.25C14.6757 14.25 13.693 14.6894 13.041 15.124C12.7136 15.3423 12.4701 15.5593 12.3116 15.7178C12.2325 15.7969 12.1752 15.8608 12.1397 15.9022C12.122 15.9228 12.1099 15.9378 12.1032 15.9461L12.0975 15.9533C11.8483 16.2818 11.3803 16.3477 11.05 16.1C10.7186 15.8515 10.6515 15.3814 10.9 15.05L11.5 15.5C10.9 15.05 10.9009 15.0488 10.9009 15.0488L10.902 15.0474L10.9045 15.044L10.9113 15.0351C10.9167 15.0283 10.9235 15.0195 10.9319 15.009C10.9487 14.988 10.9717 14.96 11.0009 14.926C11.0592 14.8579 11.1425 14.7656 11.2509 14.6572C11.4674 14.4407 11.7864 14.1577 12.209 13.876C13.0569 13.3106 14.3243 12.75 16 12.75C17.6757 12.75 18.943 13.3106 19.791 13.876C20.2136 14.1577 20.5326 14.4407 20.7491 14.6572C20.7767 14.6848 20.8064 14.7157 20.8354 14.7466C21.1049 13.8788 21.25 12.9564 21.25 12Z" fill="black"></path>
<path d="M5.56748 11.5006C5.84457 11.1927 5.81961 10.7185 5.51173 10.4414C5.20385 10.1643 4.72963 10.1893 4.45254 10.4972L4.44254 10.5083C4.16544 10.8162 4.1904 11.2904 4.49828 11.5675C4.80616 11.8446 5.28038 11.8196 5.55748 11.5117L5.56748 11.5006Z" fill="black"></path>
<path d="M17.5 7.25C18.1904 7.25 18.75 7.80964 18.75 8.5C18.75 9.19036 18.1904 9.75 17.5 9.75C16.8096 9.75 16.25 9.19036 16.25 8.5C16.25 7.80964 16.8096 7.25 17.5 7.25Z" fill="black"></path>
<path d="M10.5 7.25C11.1904 7.25 11.75 7.80964 11.75 8.5C11.75 9.19036 11.1904 9.75 10.5 9.75C9.80964 9.75 9.25 9.19036 9.25 8.5C9.25 7.80964 9.80964 7.25 10.5 7.25Z" fill="black"></path>
</svg>