<svg xmlns="http://www.w3.org/2000/svg" width="24" height="24" viewBox="0 0 24 24" fill="none" stroke="currentColor" stroke-width="2" stroke-linecap="round" stroke-linejoin="round">
  <path d="M22.54 6.42a2.4 2.4 0 0 0-1.7-1.7C19.11 4 12 4 12 4s-7.11 0-8.84.72a2.4 2.4 0 0 0-1.7 1.7A25.5 25.5 0 0 0 1 12a25.5 25.5 0 0 0 .46 5.58 2.4 2.4 0 0 0 1.7 1.7C4.89 20 12 20 12 20s7.11 0 8.84-.72a2.4 2.4 0 0 0 1.7-1.7A25.5 25.5 0 0 0 23 12a25.5 25.5 0 0 0-.46-5.58z"/>
  <polygon points="9.75 15.02 15.5 12 9.75 8.98"/>
</svg>
