<svg xmlns="http://www.w3.org/2000/svg" version="1.1" xmlns:xlink="http://www.w3.org/1999/xlink" width="580" height="85" viewBox="0 0 580 85"><svg xml:space="preserve" width="580" height="85" data-version="2" data-id="lg_HBM6GWDs6OEadgjf4b" viewBox="0 0 564 85" x="0" y="0"><rect width="100%" height="100%" fill="transparent"></rect><path fill="#f6f6f6" d="M41.04 81.93q-6.16 0-12.38-1.26-6.21-1.27-11.44-3.74-5.22-2.48-8.41-6.05-3.19-3.58-3.19-8.31 0-6.05 3.85-9.68t9.02-3.41q4.07.11 8.14 1.71 4.07 1.59 8.3 3.13 4.24 1.54 8.53 1.54 4.29 0 5.94-1.1 1.65-1.1 1.65-2.97 0-2.2-2.31-3.63-2.31-1.43-5.83-2.2l-5.39-1.32q-8.36-1.98-14.96-4.45-6.6-2.48-10.4-6.6-3.79-4.13-3.79-11.06 0-7.59 4.18-12.37 4.18-4.79 11.33-6.99T39.83.97q9.02 0 15.84 1.87t10.61 5.39q3.8 3.52 3.8 8.58 0 5.39-2.92 8.42-2.91 3.02-7.75 3.02-3.19 0-6.66-1.1-3.46-1.1-7.26-2.14-3.79-1.05-8.08-1.05-3.85 0-5.83 1.16-1.98 1.15-1.98 3.02 0 2.31 2.64 3.41t8.69 2.64l6.16 1.43q7.59 1.87 13.31 4.51 5.72 2.64 8.91 6.93 3.19 4.29 3.19 11.22 0 8.36-3.96 13.59-3.96 5.22-11 7.64t-16.5 2.42"></path><rect width="66.88" height="80.96" x="-33.44" y="-40.48" fill="none" rx="0" ry="0" transform="translate(39.56 41.95)"></rect><path fill="#f6f6f6" d="M87.57 81.6q-4.84 0-7.76-2.91-2.91-2.92-2.91-7.21V35.07q0-4.62 2.75-7.81 2.75-3.19 7.92-3.19 5.06 0 7.7 3.19 2.64 3.19 2.64 8.03v5.5h1.98q0-6.27 2.25-9.9 2.26-3.63 5.78-5.22 3.52-1.6 7.04-1.6 8.47 0 12.43 6.11 3.96 6.1 3.96 17.32v23.98q0 4.29-2.86 7.21-2.86 2.91-7.7 2.91-4.95 0-7.87-2.91-2.91-2.92-2.91-7.21V52.01q0-3.96-1.49-6.16-1.48-2.2-4.34-2.2-3.3 0-4.79 2.42-1.48 2.42-1.48 6.16v19.25q0 4.29-2.75 7.21-2.75 2.91-7.59 2.91"></path><rect width="54.45" height="57.53" x="-27.23" y="-28.77" fill="none" rx="0" ry="0" transform="translate(104.63 53.34)"></rect><path fill="#f6f6f6" d="M164.79 81.82q-12.87 0-20.52-7.64-7.64-7.65-7.64-21.62 0-8.58 3.52-15.07t9.84-10.17q6.33-3.69 14.8-3.69 9.46 0 15.73 3.69 6.27 3.68 9.4 10.17 3.14 6.49 3.14 15.07 0 13.97-6.99 21.62-6.98 7.64-21.28 7.64m-15.07-31.13q0 3.41 3.41 4.79 3.41 1.37 11.66 1.37t11.66-1.37q3.41-1.38 3.41-4.79 0-3.3-3.41-4.62-3.41-1.32-11.66-1.32t-11.66 1.32q-3.41 1.32-3.41 4.62"></path><rect width="56.43" height="58.19" x="-28.21" y="-29.09" fill="none" rx="0" ry="0" transform="translate(165.34 53.23)"></rect><path fill="#f6f6f6" d="M220.01 81.6q-6.38 0-10.4-4.18-4.01-4.18-7.31-13.75l-8.36-24.86q-1.43-4.18-.11-8.47 1.32-4.29 6.05-5.83 4.4-1.54 8.03.22 3.63 1.76 5.06 6.05l9.02 26.95q1.54 4.73 3.19 6.33 1.65 1.59 4.4.71 2.31-.77 2.91-3.35.61-2.59-1.59-8.97l-4.51-13.64q-1.43-4.29-.06-8.52 1.38-4.24 6.11-5.78 4.4-1.54 8.03.22 3.63 1.76 5.06 6.05l9.24 28.16q.88 2.53 2.75 4.62 1.87 2.09 4.84 1.21 2.31-.77 3.02-3.08.72-2.31-.27-5.39-1.32-4.18-2.92-6.6-1.59-2.42-3.08-4.18-1.48-1.76-2.42-3.74-.93-1.98-1.15-5.39-.22-3.52 1.48-6.21 1.71-2.7 4.62-4.24 2.92-1.54 6.44-1.54 5.39 0 8.74 3.58 3.36 3.57 3.36 8.41 0 1.76-.55 4.62-.55 2.86-1.43 5.28l-4.62 11.99q-1.43 3.96-3.25 8.09-1.81 4.12-4.18 7.53-2.36 3.41-5.44 5.56-3.08 2.14-7.15 2.14-7.04 0-11.28-3.63-4.23-3.63-6.65-11.99h-1.1q-1.43 6.82-4.73 11.22-3.3 4.4-9.79 4.4"></path><rect width="87.33" height="58.22" x="-43.66" y="-29.11" fill="none" rx="0" ry="0" transform="translate(237.02 52.99)"></rect><path fill="#f6f6f6" d="M310.65 83.03q-7.59 0-14.03-1.48-6.43-1.49-10.28-4.73-3.85-3.25-3.85-8.64 0-4.73 2.86-7.81 2.86-3.08 7.59-3.08 2.97 0 5.99.94 3.03.93 6.44 1.81 3.41.88 7.37.88 3.52 0 4.73-.38 1.21-.39 1.21-1.49 0-1.32-1.49-1.76-1.48-.44-5-1.1l-7.92-1.54q-4.95-.99-9.63-2.58-4.67-1.6-7.7-4.79-3.02-3.19-3.02-8.69 0-7.48 6.65-11.66 6.66-4.18 19.31-4.18 7.26 0 13.03 1.43 5.78 1.43 9.19 4.24 3.41 2.8 3.41 6.98.11 4.51-2.42 7.26t-6.38 2.75q-2.75 0-5.56-.71-2.8-.72-6.05-1.54-3.24-.83-7.42-.94-2.97-.22-4.84.33-1.87.55-1.87 1.76 0 1.32 2.2 1.82 2.2.49 6.6 1.26l7.81 1.43q7.15 1.21 11.38 3.03 4.24 1.81 6.11 5t1.87 8.8q0 5.83-3.36 9.74-3.35 3.9-9.29 5.77-5.94 1.87-13.64 1.87"></path><rect width="54.45" height="60.28" x="-27.23" y="-30.14" fill="none" rx="0" ry="0" transform="translate(310.21 53.39)"></rect><path fill="#f6f6f6" d="M370.93 81.93q-5.83 0-10.51-2.64-4.67-2.64-7.31-7.53-2.64-4.9-2.64-11.5V40.9l-4.07.55q-3.3.44-5.83-2.31-2.53-2.75-2.53-6.93t2.53-6.87q2.53-2.7 5.83-2.26l4.07.55-.11-7.48q-.11-4.4 2.53-6.98 2.64-2.59 7.7-2.59 5.06 0 7.81 2.59 2.75 2.58 2.53 6.98l-.22 7.48 5.83-.77q5.94-.88 9.02 2.15 3.08 3.02 3.08 7.2t-3.03 7.21q-3.02 3.02-8.74 2.25l-6.16-.77v16.39q0 1.43.99 2.59.99 1.15 2.42.71 1.65-.44 3.46-1.87 1.82-1.43 4.68-1.43 4.29 0 6.6 3.08 2.31 3.08 2.31 7.59 0 3.52-2.48 6.77-2.47 3.24-6.98 5.22-4.51 1.98-10.78 1.98"></path><rect width="53.13" height="75.35" x="-26.57" y="-37.67" fill="none" rx="0" ry="0" transform="translate(365.1 44.76)"></rect><path fill="#f6f6f6" d="M420.54 81.82q-12.87 0-20.52-7.64-7.64-7.65-7.64-21.62 0-8.58 3.52-15.07t9.84-10.17q6.33-3.69 14.8-3.69 9.46 0 15.73 3.69 6.27 3.68 9.4 10.17 3.14 6.49 3.14 15.07 0 13.97-6.99 21.62-6.98 7.64-21.28 7.64m-15.07-31.13q0 3.41 3.41 4.79 3.41 1.37 11.66 1.37t11.66-1.37q3.41-1.38 3.41-4.79 0-3.3-3.41-4.62-3.41-1.32-11.66-1.32t-11.66 1.32q-3.41 1.32-3.41 4.62"></path><rect width="56.43" height="58.19" x="-28.21" y="-29.09" fill="none" rx="0" ry="0" transform="translate(421.1 53.23)"></rect><path fill="#f6f6f6" d="M465.09 81.6q-5.17 0-8.03-2.97-2.86-2.97-2.86-7.48V35.07q0-4.73 2.86-7.86 2.86-3.14 8.03-3.14t7.92 3.14q2.75 3.13 2.75 7.64v2.31h2.09q.44-5.83 4.4-9.57 3.96-3.74 9.35-3.74t8.52 3.3q3.14 3.3 3.14 8.8 0 5.17-2.97 8.58t-7.59 3.41q-3.85 0-6.44-1.81-2.58-1.82-3.79-4.24-3.52-.44-5.12.72-1.59 1.15-1.59 4.56v23.98q0 4.51-2.75 7.48-2.75 2.97-7.92 2.97"></path><rect width="49.06" height="57.75" x="-24.53" y="-28.88" fill="none" rx="0" ry="0" transform="translate(479.23 53.23)"></rect><path fill="#f6f6f6" d="M504.03 53q0-8.69 3.46-15.29 3.47-6.6 9.9-10.34 6.44-3.74 15.35-3.74 6.93 0 12.48 2.53 5.56 2.53 8.75 6.77 3.19 4.23 3.19 9.29 0 5.28-3.08 7.48t-9.13 2.2h-23.1q0 2.86 2.25 4.73 2.26 1.87 7.65 1.87 2.75 0 5.11-.55 2.37-.55 4.84-1.04 2.48-.5 5.56-.5 4.4 0 7.26 3.14 2.86 3.13 2.86 8.63 0 6.49-6.66 10.12-6.65 3.63-17.43 3.63-7.59 0-14.25-2.97-6.65-2.97-10.83-9.4-4.18-6.44-4.18-16.56m35.64-4.73q1.65 0 1.1-1.54-.44-1.54-2.64-3.19t-6.38-1.65q-4.84 0-7.21 2.09-2.36 2.09-2.36 4.29Z"></path><rect width="53.35" height="58.3" x="-26.68" y="-29.15" fill="none" rx="0" ry="0" transform="translate(531.2 53.28)"></rect></svg></svg>